<?xml version="1.0" encoding="utf-8"?>
<svg viewBox="983.0599 2.01 599.8401 222.58" width="599.8401" height="222.58" xmlns="http://www.w3.org/2000/svg">
  <defs>
    <style type="text/css">.st0 { fill: rgb(0, 0, 0); }
.st1 { fill: none; stroke: rgb(0, 0, 0); stroke-width: 29.8883; stroke-miterlimit: 10; }
.st2 { clip-path: url("#SVGID_00000068666686511694746580000006588398631898674561_"); }
.st3 { clip-path: url("#SVGID_00000182504629314998449400000006009028019650343040_"); }
.st4 { clip-path: url("#SVGID_00000117637550810047322010000016279070114311108524_"); fill: none; stroke: rgb(240, 240, 240); stroke-width: 29.8883; stroke-miterlimit: 10; }
.st5 { clip-path: url("#SVGID_00000089548005509350209430000006268404650454743206_"); }
.st6 { clip-path: url("#SVGID_00000115482124098089538290000017279323522173815469_"); }
.st7 { clip-path: url("#SVGID_00000137811464835614425340000007923972467796190347_"); fill: none; stroke: rgb(240, 240, 240); stroke-width: 29.8883; stroke-miterlimit: 10; }
.st8 { clip-path: url("#SVGID_00000140002700081366034620000014854825649865139353_"); }
.st9 { clip-path: url("#SVGID_00000140010654072247744420000004261740643168691893_"); }
.st10 { clip-path: url("#SVGID_00000096755863274983318240000013023809083609956279_"); fill: none; stroke: rgb(240, 240, 240); stroke-width: 29.8883; stroke-miterlimit: 10; }
.st11 { clip-path: url("#SVGID_00000062172908133617582660000000873074577701879708_"); }
.st12 { clip-path: url("#SVGID_00000090282661642889963060000008109516579042588800_"); }
.st13 { clip-path: url("#SVGID_00000072960758306668688500000001716897712396624793_"); fill: none; stroke: rgb(240, 240, 240); stroke-width: 29.8883; stroke-miterlimit: 10; }</style>
  </defs>
  <g transform="matrix(1, 0, 0, 1, 1.4210854715202004e-14, 2.000000059604659)">
    <path class="st0" d="M1107.99,188.38H986.04v-30.24l55.52-47.34c18.34-15.86,27.26-28.01,27.26-42.63v-2.48 c0-16.36-9.91-25.28-26.27-25.28c-18.09,0-27.02,11.4-31.23,25.78l-28.26-10.66c7.44-22.8,26.27-43.13,62.21-43.13 c36.93,0,58,21.56,58,51.31c0,28.26-19.08,46.85-44.12,66.92l-37.68,30.49h86.5V188.38z"/>
    <path class="st0" d="M1108.48,101.88c0-56.51,20.33-89.48,65.44-89.48s65.44,32.97,65.44,89.48c0,56.51-20.32,89.48-65.44,89.48 S1108.48,158.39,1108.48,101.88z M1206.39,117.25V86.51c0-29.74-8.67-48.09-32.47-48.09s-32.47,18.34-32.47,48.09v30.74 c0,29.74,8.68,48.08,32.47,48.08S1206.39,146.99,1206.39,117.25z M1158.55,104.6v-5.45c0-6.69,3.97-11.9,15.37-11.9 c11.4,0,15.37,5.21,15.37,11.9v5.45c0,6.69-3.97,11.9-15.37,11.9C1162.52,116.5,1158.55,111.3,1158.55,104.6z"/>
    <path class="st0" d="M1275.54,222.59V0.01h77.09v21.81h-51.31v178.96h51.31v21.81H1275.54z"/>
    <path class="st0" d="M1582.9,0.01v222.58h-77.09v-21.81h51.31V21.82h-51.31V0.01H1582.9z"/>
  </g>
</svg>